<svg width="20" height="18" viewBox="0 0 20 18" fill="none" xmlns="http://www.w3.org/2000/svg">
<path d="M19.2812 9.52344L11.7187 16.7422C11.2891 17.1289 10.6445 17.1289 10.2578 16.6992C9.87109 16.2695 9.87109 15.625 10.3008 15.2383L16.0156 9.78125L1.40625 9.78125C0.804687 9.78125 0.375 9.35156 0.375 8.75C0.375 8.19141 0.804687 7.71875 1.40625 7.71875L16.0156 7.71875L10.3008 2.30469C9.87109 1.91797 9.87109 1.23047 10.2578 0.84375C10.6445 0.414063 11.332 0.414063 11.7188 0.800781L19.2812 8.01953C19.4961 8.23438 19.625 8.49219 19.625 8.75C19.625 9.05078 19.4961 9.30859 19.2812 9.52344Z" fill="#F5F4ED"/>
</svg>
