<svg width="54" height="54" viewBox="0 0 54 54" fill="none" xmlns="http://www.w3.org/2000/svg">
<rect x="54" y="53.9999" width="54" height="54" rx="27" transform="rotate(-180 54 53.9999)" fill="#F5F4ED"/>
<path d="M17.7188 26.4765L25.2813 19.2578C25.7109 18.871 26.3555 18.871 26.7422 19.3007C27.1289 19.7304 27.1289 20.3749 26.6992 20.7617L20.9844 26.2187L35.5938 26.2187C36.1953 26.2187 36.625 26.6484 36.625 27.2499C36.625 27.8085 36.1953 28.2812 35.5938 28.2812L20.9844 28.2812L26.6992 33.6953C27.1289 34.082 27.1289 34.7695 26.7422 35.1562C26.3555 35.5859 25.668 35.5859 25.2812 35.1992L17.7188 27.9804C17.5039 27.7656 17.375 27.5078 17.375 27.2499C17.375 26.9492 17.5039 26.6913 17.7188 26.4765Z" fill="#171719"/>
</svg>
