<svg width="54" height="54" viewBox="0 0 54 54" fill="none" xmlns="http://www.w3.org/2000/svg">
<rect y="-6.10352e-05" width="54" height="54" rx="27" fill="#F5F4ED"/>
<path d="M36.2812 27.5234L28.7187 34.7421C28.2891 35.1288 27.6445 35.1288 27.2578 34.6992C26.8711 34.2695 26.8711 33.6249 27.3008 33.2382L33.0156 27.7812H18.4062C17.8047 27.7812 17.375 27.3515 17.375 26.7499C17.375 26.1913 17.8047 25.7187 18.4062 25.7187H33.0156L27.3008 20.3046C26.8711 19.9179 26.8711 19.2304 27.2578 18.8437C27.6445 18.414 28.332 18.414 28.7188 18.8007L36.2812 26.0195C36.4961 26.2343 36.625 26.4921 36.625 26.7499C36.625 27.0507 36.4961 27.3085 36.2812 27.5234Z" fill="#171719"/>
</svg>
